# Wavefront OBJ exported by MilkShape 3D

mtllib Maze.mtl

v -40.250000 0.125005 -40.125000
v -40.250000 0.125003 -24.075001
v -13.583334 0.125003 -24.075001
v -40.250000 0.125005 -40.125000
v -13.583334 0.125003 -24.075001
v -13.583334 0.125005 -40.125000
v -13.583334 0.125003 -24.075001
v 13.083332 0.125003 -24.075001
v 13.083332 0.125005 -40.125000
v -13.583334 0.125003 -24.075001
v 13.083332 0.125005 -40.125000
v -13.583334 0.125005 -40.125000
v 13.083332 0.125005 -40.125000
v 13.083332 0.125003 -24.075001
v 39.750000 0.125003 -24.075001
v 13.083332 0.125005 -40.125000
v 39.750000 0.125003 -24.075001
v 39.750000 0.125005 -40.125000
v -40.250000 0.125001 -8.025002
v -13.583334 0.125001 -8.025002
v -13.583334 0.125003 -24.075001
v -40.250000 0.125001 -8.025002
v -13.583334 0.125003 -24.075001
v -40.250000 0.125003 -24.075001
v -13.583334 0.125003 -24.075001
v -13.583334 0.125001 -8.025002
v 13.083332 0.125001 -8.025002
v -13.583334 0.125003 -24.075001
v 13.083332 0.125001 -8.025002
v 13.083332 0.125003 -24.075001
v 13.083332 0.125001 -8.025002
v 39.750000 0.125001 -8.025002
v 39.750000 0.125003 -24.075001
v 13.083332 0.125001 -8.025002
v 39.750000 0.125003 -24.075001
v 13.083332 0.125003 -24.075001
v -40.250000 0.125001 -8.025002
v -40.250000 0.124999 8.024998
v -13.583334 0.124999 8.024998
v -40.250000 0.125001 -8.025002
v -13.583334 0.124999 8.024998
v -13.583334 0.125001 -8.025002
v -13.583334 0.124999 8.024998
v 13.083332 0.124999 8.024998
v 13.083332 0.125001 -8.025002
v -13.583334 0.124999 8.024998
v 13.083332 0.125001 -8.025002
v -13.583334 0.125001 -8.025002
v 13.083332 0.125001 -8.025002
v 13.083332 0.124999 8.024998
v 39.750000 0.124999 8.024998
v 13.083332 0.125001 -8.025002
v 39.750000 0.124999 8.024998
v 39.750000 0.125001 -8.025002
v -40.250000 0.124997 24.074997
v -13.583334 0.124997 24.074997
v -13.583334 0.124999 8.024998
v -40.250000 0.124997 24.074997
v -13.583334 0.124999 8.024998
v -40.250000 0.124999 8.024998
v -13.583334 0.124999 8.024998
v -13.583334 0.124997 24.074997
v 13.083332 0.124997 24.074997
v -13.583334 0.124999 8.024998
v 13.083332 0.124997 24.074997
v 13.083332 0.124999 8.024998
v 13.083332 0.124997 24.074997
v 39.750000 0.124997 24.074997
v 39.750000 0.124999 8.024998
v 13.083332 0.124997 24.074997
v 39.750000 0.124999 8.024998
v 13.083332 0.124999 8.024998
v -40.250000 0.124997 24.074997
v -40.250000 0.124995 40.124996
v -13.583334 0.124995 40.124996
v -40.250000 0.124997 24.074997
v -13.583334 0.124995 40.124996
v -13.583334 0.124997 24.074997
v -13.583334 0.124995 40.124996
v 13.083332 0.124995 40.124996
v 13.083332 0.124997 24.074997
v -13.583334 0.124995 40.124996
v 13.083332 0.124997 24.074997
v -13.583334 0.124997 24.074997
v 13.083332 0.124997 24.074997
v 13.083332 0.124995 40.124996
v 39.750000 0.124995 40.124996
v 13.083332 0.124997 24.074997
v 39.750000 0.124995 40.124996
v 39.750000 0.124997 24.074997
v -41.000000 10.750000 -19.875000
v -41.000000 0.000000 -19.875000
v -40.000000 10.750000 -19.875000
v -40.000000 0.000000 -19.875000
v -40.000000 10.750000 -39.625000
v -40.000000 0.000000 -39.625000
v -41.000000 10.750000 -39.625000
v -41.000000 0.000000 -39.625000
v -41.000000 10.750000 -0.375000
v -41.000000 0.000000 -0.375000
v -40.000000 10.750000 -0.375000
v -40.000000 0.000000 -0.375000
v -40.000000 10.750000 -20.125000
v -40.000000 0.000000 -20.125000
v -41.000000 10.750000 -20.125000
v -41.000000 0.000000 -20.125000
v -41.000000 10.750000 19.125000
v -41.000000 0.000000 19.125000
v -40.000000 10.750000 19.125000
v -40.000000 0.000000 19.125000
v -40.000000 10.750000 -0.625000
v -40.000000 0.000000 -0.625000
v -41.000000 10.750000 -0.625000
v -41.000000 0.000000 -0.625000
v -41.000000 10.750000 38.625000
v -41.000000 0.000000 38.625000
v -40.000000 10.750000 38.625000
v -40.000000 0.000000 38.625000
v -40.000000 10.750000 18.875000
v -40.000000 0.000000 18.875000
v -41.000000 10.750000 18.875000
v -41.000000 0.000000 18.875000
v -20.625000 10.750000 39.500000
v -20.625000 0.000000 39.500000
v -20.625000 10.750000 38.500000
v -20.625000 0.000000 38.500000
v -40.375000 10.750000 38.500000
v -40.375000 0.000000 38.500000
v -40.375000 10.750000 39.500000
v -40.375000 0.000000 39.500000
v -1.375000 10.750000 39.500000
v -1.375000 0.000000 39.500000
v -1.375000 10.750000 38.500000
v -1.375000 0.000000 38.500000
v -21.125000 10.750000 38.500000
v -21.125000 0.000000 38.500000
v -21.125000 10.750000 39.500000
v -21.125000 0.000000 39.500000
v 17.625000 10.750000 39.500000
v 17.625000 0.000000 39.500000
v 17.625000 10.750000 38.500000
v 17.625000 0.000000 38.500000
v -2.125000 10.750000 38.500000
v -2.125000 0.000000 38.500000
v -2.125000 10.750000 39.500000
v -2.125000 0.000000 39.500000
v 37.125000 10.750000 39.500000
v 37.125000 0.000000 39.500000
v 37.125000 10.750000 38.500000
v 37.125000 0.000000 38.500000
v 17.375000 10.750000 38.500000
v 17.375000 0.000000 38.500000
v 17.375000 10.750000 39.500000
v 17.375000 0.000000 39.500000
v -20.625000 10.750000 -39.250000
v -20.625000 0.000000 -39.250000
v -20.625000 10.750000 -40.250000
v -20.625000 0.000000 -40.250000
v -40.375000 10.750000 -40.250000
v -40.375000 0.000000 -40.250000
v -40.375000 10.750000 -39.250000
v -40.375000 0.000000 -39.250000
v -1.375000 10.750000 -39.250000
v -1.375000 0.000000 -39.250000
v -1.375000 10.750000 -40.250000
v -1.375000 0.000000 -40.250000
v -21.125000 10.750000 -40.250000
v -21.125000 0.000000 -40.250000
v -21.125000 10.750000 -39.250000
v -21.125000 0.000000 -39.250000
v 17.625000 10.750000 -39.250000
v 17.625000 0.000000 -39.250000
v 17.625000 10.750000 -40.250000
v 17.625000 0.000000 -40.250000
v -2.125000 10.750000 -40.250000
v -2.125000 0.000000 -40.250000
v -2.125000 10.750000 -39.250000
v -2.125000 0.000000 -39.250000
v 37.125000 10.750000 -39.250000
v 37.125000 0.000000 -39.250000
v 37.125000 10.750000 -40.250000
v 37.125000 0.000000 -40.250000
v 17.375000 10.750000 -40.250000
v 17.375000 0.000000 -40.250000
v 17.375000 10.750000 -39.250000
v 17.375000 0.000000 -39.250000
v 36.750000 10.750000 -19.875000
v 36.750000 0.000000 -19.875000
v 37.750000 10.750000 -19.875000
v 37.750000 0.000000 -19.875000
v 37.750000 10.750000 -39.625000
v 37.750000 0.000000 -39.625000
v 36.750000 10.750000 -39.625000
v 36.750000 0.000000 -39.625000
v 36.750000 10.750000 -0.375000
v 36.750000 0.000000 -0.375000
v 37.750000 10.750000 -0.375000
v 37.750000 0.000000 -0.375000
v 37.750000 10.750000 -20.125000
v 37.750000 0.000000 -20.125000
v 36.750000 10.750000 -20.125000
v 36.750000 0.000000 -20.125000
v 36.750000 10.750000 19.125000
v 36.750000 0.000000 19.125000
v 37.750000 10.750000 19.125000
v 37.750000 0.000000 19.125000
v 37.750000 10.750000 -0.625000
v 37.750000 0.000000 -0.625000
v 36.750000 10.750000 -0.625000
v 36.750000 0.000000 -0.625000
v 36.750000 10.750000 38.625000
v 36.750000 0.000000 38.625000
v 37.750000 10.750000 38.625000
v 37.750000 0.000000 38.625000
v 37.750000 10.750000 18.875000
v 37.750000 0.000000 18.875000
v 36.750000 10.750000 18.875000
v 36.750000 0.000000 18.875000
v -21.500000 10.750000 -19.875000
v -21.500000 0.000000 -19.875000
v -20.500000 10.750000 -19.875000
v -20.500000 0.000000 -19.875000
v -20.500000 10.750000 -39.625000
v -20.500000 0.000000 -39.625000
v -21.500000 10.750000 -39.625000
v -21.500000 0.000000 -39.625000
v 16.500000 10.750000 -19.875000
v 16.500000 0.000000 -19.875000
v 17.500000 10.750000 -19.875000
v 17.500000 0.000000 -19.875000
v 17.500000 10.750000 -39.625000
v 17.500000 0.000000 -39.625000
v 16.500000 10.750000 -39.625000
v 16.500000 0.000000 -39.625000
v -0.500000 10.750000 7.875000
v -0.500000 0.000000 7.875000
v 0.500000 10.750000 7.875000
v 0.500000 0.000000 7.875000
v 0.500000 10.750000 -11.875000
v 0.500000 0.000000 -11.875000
v -0.500000 10.750000 -11.875000
v -0.500000 0.000000 -11.875000
v 12.250000 10.750000 27.875000
v 12.250000 0.000000 27.875000
v 13.250000 10.750000 27.875000
v 13.250000 0.000000 27.875000
v 13.250000 10.750000 8.125000
v 13.250000 0.000000 8.125000
v 12.250000 10.750000 8.125000
v 12.250000 0.000000 8.125000
v -27.750000 10.750000 28.125000
v -27.750000 0.000000 28.125000
v -26.750000 10.750000 28.125000
v -26.750000 0.000000 28.125000
v -26.750000 10.750000 8.375000
v -26.750000 0.000000 8.375000
v -27.750000 10.750000 8.375000
v -27.750000 0.000000 8.375000
v 26.500000 10.750000 8.125000
v 26.500000 0.000000 8.125000
v 27.500000 10.750000 8.125000
v 27.500000 0.000000 8.125000
v 27.500000 10.750000 -11.625000
v 27.500000 0.000000 -11.625000
v 26.500000 10.750000 -11.625000
v 26.500000 0.000000 -11.625000
v -7.375000 10.750000 28.000000
v -7.375000 0.000000 28.000000
v -7.375000 10.750000 27.000000
v -7.375000 0.000000 27.000000
v -27.125000 10.750000 27.000000
v -27.125000 0.000000 27.000000
v -27.125000 10.750000 28.000000
v -27.125000 0.000000 28.000000
v -0.875000 10.750000 -19.250000
v -0.875000 0.000000 -19.250000
v -0.875000 10.750000 -20.250000
v -0.875000 0.000000 -20.250000
v -20.625000 10.750000 -20.250000
v -20.625000 0.000000 -20.250000
v -20.625000 10.750000 -19.250000
v -20.625000 0.000000 -19.250000
v 13.375000 10.750000 9.000000
v 13.375000 0.000000 9.000000
v 13.375000 10.750000 8.000000
v 13.375000 0.000000 8.000000
v -6.375000 10.750000 8.000000
v -6.375000 0.000000 8.000000
v -6.375000 10.750000 9.000000
v -6.375000 0.000000 9.000000
v 37.125000 10.750000 -11.000000
v 37.125000 0.000000 -11.000000
v 37.125000 10.750000 -12.000000
v 37.125000 0.000000 -12.000000
v 17.375000 10.750000 -12.000000
v 17.375000 0.000000 -12.000000
v 17.375000 10.750000 -11.000000
v 17.375000 0.000000 -11.000000
v 32.875000 10.750000 17.500000
v 32.875000 0.000000 17.500000
v 32.875000 10.750000 16.500000
v 32.875000 0.000000 16.500000
v 13.125000 10.750000 16.500000
v 13.125000 0.000000 16.500000
v 13.125000 10.750000 17.500000
v 13.125000 0.000000 17.500000
v -21.125000 10.750000 -0.250000
v -21.125000 0.000000 -0.250000
v -21.125000 10.750000 -1.250000
v -21.125000 0.000000 -1.250000
v -40.875000 10.750000 -1.250000
v -40.875000 0.000000 -1.250000
v -40.875000 10.750000 -0.250000
v -40.875000 0.000000 -0.250000
# 314 vertices

vt 0.000000 -9.000000
vt 0.000000 -7.000000
vt 3.333333 -7.000000
vt 3.333333 -9.000000
vt 6.666667 -7.000000
vt 6.666667 -9.000000
vt 10.000000 -7.000000
vt 10.000000 -9.000000
vt 0.000000 -5.000000
vt 3.333333 -5.000000
vt 6.666667 -5.000000
vt 10.000000 -5.000000
vt 0.000000 -3.000000
vt 3.333333 -3.000000
vt 6.666667 -3.000000
vt 10.000000 -3.000000
vt 0.000000 -1.000000
vt 3.333333 -1.000000
vt 6.666667 -1.000000
vt 10.000000 -1.000000
vt 0.000000 1.000000
vt 3.333333 1.000000
vt 6.666667 1.000000
vt 10.000000 1.000000
vt 0.000000 0.000000
vt 1.000000 1.000000
vt 1.000000 0.000000
# 27 texture coordinates

vn 0.000000 1.000000 0.000000
vn 0.000000 0.000000 1.000000
vn 1.000000 0.000000 0.000000
vn 0.000000 0.000000 -1.000000
vn -1.000000 0.000000 0.000000
vn 0.000000 -1.000000 0.000000
# 6 normals

g Plane01
usemtl Material01
s 1
f 1/1/1 2/2/1 3/3/1
f 4/1/1 5/3/1 6/4/1
f 7/3/1 8/5/1 9/6/1
f 10/3/1 11/6/1 12/4/1
f 13/6/1 14/5/1 15/7/1
f 16/6/1 17/7/1 18/8/1
f 19/9/1 20/10/1 21/3/1
f 22/9/1 23/3/1 24/2/1
f 25/3/1 26/10/1 27/11/1
f 28/3/1 29/11/1 30/5/1
f 31/11/1 32/12/1 33/7/1
f 34/11/1 35/7/1 36/5/1
f 37/9/1 38/13/1 39/14/1
f 40/9/1 41/14/1 42/10/1
f 43/14/1 44/15/1 45/11/1
f 46/14/1 47/11/1 48/10/1
f 49/11/1 50/15/1 51/16/1
f 52/11/1 53/16/1 54/12/1
f 55/17/1 56/18/1 57/14/1
f 58/17/1 59/14/1 60/13/1
f 61/14/1 62/18/1 63/19/1
f 64/14/1 65/19/1 66/15/1
f 67/19/1 68/20/1 69/16/1
f 70/19/1 71/16/1 72/15/1
f 73/17/1 74/21/1 75/22/1
f 76/17/1 77/22/1 78/18/1
f 79/22/1 80/23/1 81/19/1
f 82/22/1 83/19/1 84/18/1
f 85/19/1 86/23/1 87/24/1
f 88/19/1 89/24/1 90/20/1
# 30 triangles in group

g Box01
usemtl Material02
f 91/21/2 92/25/2 93/26/2
f 92/25/2 94/27/2 93/26/2
s 2
f 93/21/3 94/25/3 95/26/3
f 94/25/3 96/27/3 95/26/3
s 1
f 95/21/4 96/25/4 97/26/4
f 96/25/4 98/27/4 97/26/4
s 2
f 97/21/5 98/25/5 91/26/5
f 98/25/5 92/27/5 91/26/5
s 3
f 97/21/1 91/25/1 95/26/1
f 91/25/1 93/27/1 95/26/1
f 92/21/6 98/25/6 94/26/6
f 98/25/6 96/27/6 94/26/6
# 12 triangles in group

g Duplicate00
usemtl Material02
s 1
f 99/21/2 100/25/2 101/26/2
f 100/25/2 102/27/2 101/26/2
s 2
f 101/21/3 102/25/3 103/26/3
f 102/25/3 104/27/3 103/26/3
s 1
f 103/21/4 104/25/4 105/26/4
f 104/25/4 106/27/4 105/26/4
s 2
f 105/21/5 106/25/5 99/26/5
f 106/25/5 100/27/5 99/26/5
s 3
f 105/21/1 99/25/1 103/26/1
f 99/25/1 101/27/1 103/26/1
f 100/21/6 106/25/6 102/26/6
f 106/25/6 104/27/6 102/26/6
# 12 triangles in group

g Duplicate01
usemtl Material02
s 1
f 107/21/2 108/25/2 109/26/2
f 108/25/2 110/27/2 109/26/2
s 2
f 109/21/3 110/25/3 111/26/3
f 110/25/3 112/27/3 111/26/3
s 1
f 111/21/4 112/25/4 113/26/4
f 112/25/4 114/27/4 113/26/4
s 2
f 113/21/5 114/25/5 107/26/5
f 114/25/5 108/27/5 107/26/5
s 3
f 113/21/1 107/25/1 111/26/1
f 107/25/1 109/27/1 111/26/1
f 108/21/6 114/25/6 110/26/6
f 114/25/6 112/27/6 110/26/6
# 12 triangles in group

g Duplicate02
usemtl Material02
s 1
f 115/21/2 116/25/2 117/26/2
f 116/25/2 118/27/2 117/26/2
s 2
f 117/21/3 118/25/3 119/26/3
f 118/25/3 120/27/3 119/26/3
s 1
f 119/21/4 120/25/4 121/26/4
f 120/25/4 122/27/4 121/26/4
s 2
f 121/21/5 122/25/5 115/26/5
f 122/25/5 116/27/5 115/26/5
s 3
f 121/21/1 115/25/1 119/26/1
f 115/25/1 117/27/1 119/26/1
f 116/21/6 122/25/6 118/26/6
f 122/25/6 120/27/6 118/26/6
# 12 triangles in group

g Duplicate03
usemtl Material02
s 1
f 123/21/3 124/25/3 125/26/3
f 124/25/3 126/27/3 125/26/3
s 2
f 125/21/4 126/25/4 127/26/4
f 126/25/4 128/27/4 127/26/4
s 1
f 127/21/5 128/25/5 129/26/5
f 128/25/5 130/27/5 129/26/5
s 2
f 129/21/2 130/25/2 123/26/2
f 130/25/2 124/27/2 123/26/2
s 3
f 129/21/1 123/25/1 127/26/1
f 123/25/1 125/27/1 127/26/1
f 124/21/6 130/25/6 126/26/6
f 130/25/6 128/27/6 126/26/6
# 12 triangles in group

g Duplicate04
usemtl Material02
s 1
f 131/21/3 132/25/3 133/26/3
f 132/25/3 134/27/3 133/26/3
s 2
f 133/21/4 134/25/4 135/26/4
f 134/25/4 136/27/4 135/26/4
s 1
f 135/21/5 136/25/5 137/26/5
f 136/25/5 138/27/5 137/26/5
s 2
f 137/21/2 138/25/2 131/26/2
f 138/25/2 132/27/2 131/26/2
s 3
f 137/21/1 131/25/1 135/26/1
f 131/25/1 133/27/1 135/26/1
f 132/21/6 138/25/6 134/26/6
f 138/25/6 136/27/6 134/26/6
# 12 triangles in group

g Duplicate05
usemtl Material02
s 1
f 139/21/3 140/25/3 141/26/3
f 140/25/3 142/27/3 141/26/3
s 2
f 141/21/4 142/25/4 143/26/4
f 142/25/4 144/27/4 143/26/4
s 1
f 143/21/5 144/25/5 145/26/5
f 144/25/5 146/27/5 145/26/5
s 2
f 145/21/2 146/25/2 139/26/2
f 146/25/2 140/27/2 139/26/2
s 3
f 145/21/1 139/25/1 143/26/1
f 139/25/1 141/27/1 143/26/1
f 140/21/6 146/25/6 142/26/6
f 146/25/6 144/27/6 142/26/6
# 12 triangles in group

g Duplicate06
usemtl Material02
s 1
f 147/21/3 148/25/3 149/26/3
f 148/25/3 150/27/3 149/26/3
s 2
f 149/21/4 150/25/4 151/26/4
f 150/25/4 152/27/4 151/26/4
s 1
f 151/21/5 152/25/5 153/26/5
f 152/25/5 154/27/5 153/26/5
s 2
f 153/21/2 154/25/2 147/26/2
f 154/25/2 148/27/2 147/26/2
s 3
f 153/21/1 147/25/1 151/26/1
f 147/25/1 149/27/1 151/26/1
f 148/21/6 154/25/6 150/26/6
f 154/25/6 152/27/6 150/26/6
# 12 triangles in group

g Duplicate07
usemtl Material02
s 1
f 155/21/3 156/25/3 157/26/3
f 156/25/3 158/27/3 157/26/3
s 2
f 157/21/4 158/25/4 159/26/4
f 158/25/4 160/27/4 159/26/4
s 1
f 159/21/5 160/25/5 161/26/5
f 160/25/5 162/27/5 161/26/5
s 2
f 161/21/2 162/25/2 155/26/2
f 162/25/2 156/27/2 155/26/2
s 3
f 161/21/1 155/25/1 159/26/1
f 155/25/1 157/27/1 159/26/1
f 156/21/6 162/25/6 158/26/6
f 162/25/6 160/27/6 158/26/6
s 1
f 163/21/3 164/25/3 165/26/3
f 164/25/3 166/27/3 165/26/3
s 2
f 165/21/4 166/25/4 167/26/4
f 166/25/4 168/27/4 167/26/4
s 1
f 167/21/5 168/25/5 169/26/5
f 168/25/5 170/27/5 169/26/5
s 2
f 169/21/2 170/25/2 163/26/2
f 170/25/2 164/27/2 163/26/2
s 3
f 169/21/1 163/25/1 167/26/1
f 163/25/1 165/27/1 167/26/1
f 164/21/6 170/25/6 166/26/6
f 170/25/6 168/27/6 166/26/6
s 1
f 171/21/3 172/25/3 173/26/3
f 172/25/3 174/27/3 173/26/3
s 2
f 173/21/4 174/25/4 175/26/4
f 174/25/4 176/27/4 175/26/4
s 1
f 175/21/5 176/25/5 177/26/5
f 176/25/5 178/27/5 177/26/5
s 2
f 177/21/2 178/25/2 171/26/2
f 178/25/2 172/27/2 171/26/2
s 3
f 177/21/1 171/25/1 175/26/1
f 171/25/1 173/27/1 175/26/1
f 172/21/6 178/25/6 174/26/6
f 178/25/6 176/27/6 174/26/6
s 1
f 179/21/3 180/25/3 181/26/3
f 180/25/3 182/27/3 181/26/3
s 2
f 181/21/4 182/25/4 183/26/4
f 182/25/4 184/27/4 183/26/4
s 1
f 183/21/5 184/25/5 185/26/5
f 184/25/5 186/27/5 185/26/5
s 2
f 185/21/2 186/25/2 179/26/2
f 186/25/2 180/27/2 179/26/2
s 3
f 185/21/1 179/25/1 183/26/1
f 179/25/1 181/27/1 183/26/1
f 180/21/6 186/25/6 182/26/6
f 186/25/6 184/27/6 182/26/6
# 48 triangles in group

g Duplicate08
usemtl Material02
s 1
f 187/21/2 188/25/2 189/26/2
f 188/25/2 190/27/2 189/26/2
s 2
f 189/21/3 190/25/3 191/26/3
f 190/25/3 192/27/3 191/26/3
s 1
f 191/21/4 192/25/4 193/26/4
f 192/25/4 194/27/4 193/26/4
s 2
f 193/21/5 194/25/5 187/26/5
f 194/25/5 188/27/5 187/26/5
s 3
f 193/21/1 187/25/1 191/26/1
f 187/25/1 189/27/1 191/26/1
f 188/21/6 194/25/6 190/26/6
f 194/25/6 192/27/6 190/26/6
s 1
f 195/21/2 196/25/2 197/26/2
f 196/25/2 198/27/2 197/26/2
s 2
f 197/21/3 198/25/3 199/26/3
f 198/25/3 200/27/3 199/26/3
s 1
f 199/21/4 200/25/4 201/26/4
f 200/25/4 202/27/4 201/26/4
s 2
f 201/21/5 202/25/5 195/26/5
f 202/25/5 196/27/5 195/26/5
s 3
f 201/21/1 195/25/1 199/26/1
f 195/25/1 197/27/1 199/26/1
f 196/21/6 202/25/6 198/26/6
f 202/25/6 200/27/6 198/26/6
s 1
f 203/21/2 204/25/2 205/26/2
f 204/25/2 206/27/2 205/26/2
s 2
f 205/21/3 206/25/3 207/26/3
f 206/25/3 208/27/3 207/26/3
s 1
f 207/21/4 208/25/4 209/26/4
f 208/25/4 210/27/4 209/26/4
s 2
f 209/21/5 210/25/5 203/26/5
f 210/25/5 204/27/5 203/26/5
s 3
f 209/21/1 203/25/1 207/26/1
f 203/25/1 205/27/1 207/26/1
f 204/21/6 210/25/6 206/26/6
f 210/25/6 208/27/6 206/26/6
s 1
f 211/21/2 212/25/2 213/26/2
f 212/25/2 214/27/2 213/26/2
s 2
f 213/21/3 214/25/3 215/26/3
f 214/25/3 216/27/3 215/26/3
s 1
f 215/21/4 216/25/4 217/26/4
f 216/25/4 218/27/4 217/26/4
s 2
f 217/21/5 218/25/5 211/26/5
f 218/25/5 212/27/5 211/26/5
s 3
f 217/21/1 211/25/1 215/26/1
f 211/25/1 213/27/1 215/26/1
f 212/21/6 218/25/6 214/26/6
f 218/25/6 216/27/6 214/26/6
# 48 triangles in group

g Duplicate09
usemtl Material02
s 1
f 219/21/2 220/25/2 221/26/2
f 220/25/2 222/27/2 221/26/2
s 2
f 221/21/3 222/25/3 223/26/3
f 222/25/3 224/27/3 223/26/3
s 1
f 223/21/4 224/25/4 225/26/4
f 224/25/4 226/27/4 225/26/4
s 2
f 225/21/5 226/25/5 219/26/5
f 226/25/5 220/27/5 219/26/5
s 3
f 225/21/1 219/25/1 223/26/1
f 219/25/1 221/27/1 223/26/1
f 220/21/6 226/25/6 222/26/6
f 226/25/6 224/27/6 222/26/6
# 12 triangles in group

g Duplicate10
usemtl Material02
s 1
f 227/21/2 228/25/2 229/26/2
f 228/25/2 230/27/2 229/26/2
s 2
f 229/21/3 230/25/3 231/26/3
f 230/25/3 232/27/3 231/26/3
s 1
f 231/21/4 232/25/4 233/26/4
f 232/25/4 234/27/4 233/26/4
s 2
f 233/21/5 234/25/5 227/26/5
f 234/25/5 228/27/5 227/26/5
s 3
f 233/21/1 227/25/1 231/26/1
f 227/25/1 229/27/1 231/26/1
f 228/21/6 234/25/6 230/26/6
f 234/25/6 232/27/6 230/26/6
# 12 triangles in group

g Duplicate11
usemtl Material02
s 1
f 235/21/2 236/25/2 237/26/2
f 236/25/2 238/27/2 237/26/2
s 2
f 237/21/3 238/25/3 239/26/3
f 238/25/3 240/27/3 239/26/3
s 1
f 239/21/4 240/25/4 241/26/4
f 240/25/4 242/27/4 241/26/4
s 2
f 241/21/5 242/25/5 235/26/5
f 242/25/5 236/27/5 235/26/5
s 3
f 241/21/1 235/25/1 239/26/1
f 235/25/1 237/27/1 239/26/1
f 236/21/6 242/25/6 238/26/6
f 242/25/6 240/27/6 238/26/6
# 12 triangles in group

g Duplicate12
usemtl Material02
s 1
f 243/21/2 244/25/2 245/26/2
f 244/25/2 246/27/2 245/26/2
s 2
f 245/21/3 246/25/3 247/26/3
f 246/25/3 248/27/3 247/26/3
s 1
f 247/21/4 248/25/4 249/26/4
f 248/25/4 250/27/4 249/26/4
s 2
f 249/21/5 250/25/5 243/26/5
f 250/25/5 244/27/5 243/26/5
s 3
f 249/21/1 243/25/1 247/26/1
f 243/25/1 245/27/1 247/26/1
f 244/21/6 250/25/6 246/26/6
f 250/25/6 248/27/6 246/26/6
# 12 triangles in group

g Duplicate13
usemtl Material02
s 1
f 251/21/2 252/25/2 253/26/2
f 252/25/2 254/27/2 253/26/2
s 2
f 253/21/3 254/25/3 255/26/3
f 254/25/3 256/27/3 255/26/3
s 1
f 255/21/4 256/25/4 257/26/4
f 256/25/4 258/27/4 257/26/4
s 2
f 257/21/5 258/25/5 251/26/5
f 258/25/5 252/27/5 251/26/5
s 3
f 257/21/1 251/25/1 255/26/1
f 251/25/1 253/27/1 255/26/1
f 252/21/6 258/25/6 254/26/6
f 258/25/6 256/27/6 254/26/6
# 12 triangles in group

g Duplicate14
usemtl Material02
s 1
f 259/21/2 260/25/2 261/26/2
f 260/25/2 262/27/2 261/26/2
s 2
f 261/21/3 262/25/3 263/26/3
f 262/25/3 264/27/3 263/26/3
s 1
f 263/21/4 264/25/4 265/26/4
f 264/25/4 266/27/4 265/26/4
s 2
f 265/21/5 266/25/5 259/26/5
f 266/25/5 260/27/5 259/26/5
s 3
f 265/21/1 259/25/1 263/26/1
f 259/25/1 261/27/1 263/26/1
f 260/21/6 266/25/6 262/26/6
f 266/25/6 264/27/6 262/26/6
# 12 triangles in group

g Duplicate15
usemtl Material02
s 1
f 267/21/3 268/25/3 269/26/3
f 268/25/3 270/27/3 269/26/3
s 2
f 269/21/4 270/25/4 271/26/4
f 270/25/4 272/27/4 271/26/4
s 1
f 271/21/5 272/25/5 273/26/5
f 272/25/5 274/27/5 273/26/5
s 2
f 273/21/2 274/25/2 267/26/2
f 274/25/2 268/27/2 267/26/2
s 3
f 273/21/1 267/25/1 271/26/1
f 267/25/1 269/27/1 271/26/1
f 268/21/6 274/25/6 270/26/6
f 274/25/6 272/27/6 270/26/6
# 12 triangles in group

g Duplicate16
usemtl Material02
s 1
f 275/21/3 276/25/3 277/26/3
f 276/25/3 278/27/3 277/26/3
s 2
f 277/21/4 278/25/4 279/26/4
f 278/25/4 280/27/4 279/26/4
s 1
f 279/21/5 280/25/5 281/26/5
f 280/25/5 282/27/5 281/26/5
s 2
f 281/21/2 282/25/2 275/26/2
f 282/25/2 276/27/2 275/26/2
s 3
f 281/21/1 275/25/1 279/26/1
f 275/25/1 277/27/1 279/26/1
f 276/21/6 282/25/6 278/26/6
f 282/25/6 280/27/6 278/26/6
# 12 triangles in group

g Duplicate17
usemtl Material02
s 1
f 283/21/3 284/25/3 285/26/3
f 284/25/3 286/27/3 285/26/3
s 2
f 285/21/4 286/25/4 287/26/4
f 286/25/4 288/27/4 287/26/4
s 1
f 287/21/5 288/25/5 289/26/5
f 288/25/5 290/27/5 289/26/5
s 2
f 289/21/2 290/25/2 283/26/2
f 290/25/2 284/27/2 283/26/2
s 3
f 289/21/1 283/25/1 287/26/1
f 283/25/1 285/27/1 287/26/1
f 284/21/6 290/25/6 286/26/6
f 290/25/6 288/27/6 286/26/6
# 12 triangles in group

g Duplicate18
usemtl Material02
s 1
f 291/21/3 292/25/3 293/26/3
f 292/25/3 294/27/3 293/26/3
s 2
f 293/21/4 294/25/4 295/26/4
f 294/25/4 296/27/4 295/26/4
s 1
f 295/21/5 296/25/5 297/26/5
f 296/25/5 298/27/5 297/26/5
s 2
f 297/21/2 298/25/2 291/26/2
f 298/25/2 292/27/2 291/26/2
s 3
f 297/21/1 291/25/1 295/26/1
f 291/25/1 293/27/1 295/26/1
f 292/21/6 298/25/6 294/26/6
f 298/25/6 296/27/6 294/26/6
# 12 triangles in group

g Duplicate19
usemtl Material02
s 1
f 299/21/3 300/25/3 301/26/3
f 300/25/3 302/27/3 301/26/3
s 2
f 301/21/4 302/25/4 303/26/4
f 302/25/4 304/27/4 303/26/4
s 1
f 303/21/5 304/25/5 305/26/5
f 304/25/5 306/27/5 305/26/5
s 2
f 305/21/2 306/25/2 299/26/2
f 306/25/2 300/27/2 299/26/2
s 3
f 305/21/1 299/25/1 303/26/1
f 299/25/1 301/27/1 303/26/1
f 300/21/6 306/25/6 302/26/6
f 306/25/6 304/27/6 302/26/6
# 12 triangles in group

g Duplicate20
usemtl Material02
s 1
f 307/21/3 308/25/3 309/26/3
f 308/25/3 310/27/3 309/26/3
s 2
f 309/21/4 310/25/4 311/26/4
f 310/25/4 312/27/4 311/26/4
s 1
f 311/21/5 312/25/5 313/26/5
f 312/25/5 314/27/5 313/26/5
s 2
f 313/21/2 314/25/2 307/26/2
f 314/25/2 308/27/2 307/26/2
s 3
f 313/21/1 307/25/1 311/26/1
f 307/25/1 309/27/1 311/26/1
f 308/21/6 314/25/6 310/26/6
f 314/25/6 312/27/6 310/26/6
# 12 triangles in group

# 366 triangles total

